<?xml version="1.0" encoding="UTF-8"?>
<!DOCTYPE svg PUBLIC "-//W3C//DTD SVG 1.1//EN" "http://www.w3.org/Graphics/SVG/1.1/DTD/svg11.dtd">
<svg xmlns="http://www.w3.org/2000/svg" version="1.1" width="50px" height="49px" style="shape-rendering:geometricPrecision; text-rendering:geometricPrecision; image-rendering:optimizeQuality; fill-rule:evenodd; clip-rule:evenodd" xmlns:xlink="http://www.w3.org/1999/xlink">
<g><path style="opacity:1" fill="#000" d="M 13.5,-0.5 C 21.5,-0.5 29.5,-0.5 37.5,-0.5C 43.6157,0.281516 47.6157,3.61485 49.5,9.5C 49.5,16.1667 49.5,22.8333 49.5,29.5C 49.0391,40.622 43.3725,46.9554 32.5,48.5C 25.8333,48.5 19.1667,48.5 12.5,48.5C 5.26195,45.5892 0.928619,40.2559 -0.5,32.5C -0.5,28.8333 -0.5,25.1667 -0.5,21.5C 2.16667,20.8333 2.16667,20.1667 -0.5,19.5C -0.5,18.8333 -0.5,18.1667 -0.5,17.5C 0.789202,13.2031 2.2892,8.86979 4,4.5C 6.79311,1.9696 9.95978,0.302933 13.5,-0.5 Z M 15.5,4.5 C 23.8802,4.26185 32.2135,4.76185 40.5,6C 41.3333,6.83333 42.1667,7.66667 43,8.5C 44.8129,17.1428 44.8129,25.8095 43,34.5C 42.4264,37.3192 41.0931,39.6525 39,41.5C 28.8238,44.4455 18.8238,44.1122 9,40.5C 4.84801,29.0271 4.84801,17.6938 9,6.5C 11.277,5.88278 13.4437,5.21611 15.5,4.5 Z M 20.5,15.5 C 31.4109,15.1614 34.7443,19.9947 30.5,30C 19.8329,34.6796 15.6662,31.1796 18,19.5C 18.6622,18.0161 19.4955,16.6828 20.5,15.5 Z"/></g>
<g><path style="opacity:1" fill="#faf3e0" d="M 35.5,7.5 C 42.3648,8.2154 43.0314,10.5487 37.5,14.5C 34.5075,12.8667 33.8408,10.5334 35.5,7.5 Z"/></g>
<g><path style="opacity:1" fill="#faf3e0" d="M 20.5,10.5 C 30.3803,9.93086 36.3803,14.4309 38.5,24C 36.5384,31.7916 31.5384,36.2916 23.5,37.5C 11.8714,33.1161 9.03806,25.4494 15,14.5C 16.8121,13.0229 18.6455,11.6896 20.5,10.5 Z M 20.5,15.5 C 19.4955,16.6828 18.6622,18.0161 18,19.5C 15.6662,31.1796 19.8329,34.6796 30.5,30C 34.7443,19.9947 31.4109,15.1614 20.5,15.5 Z"/></g>
<g><path style="opacity:1" fill="#faf3e0" d="M -0.5,19.5 C 2.16667,20.1667 2.16667,20.8333 -0.5,21.5C -0.5,20.8333 -0.5,20.1667 -0.5,19.5 Z"/></g>
</svg>
