<?xml version="1.0" encoding="utf-8"?>
<!-- Generator: Adobe Illustrator 27.2.0, SVG Export Plug-In . SVG Version: 6.00 Build 0)  -->
<svg version="1.1" xmlns="http://www.w3.org/2000/svg" xmlns:xlink="http://www.w3.org/1999/xlink" x="0px" y="0px"
	 viewBox="0 0 504 360" style="enable-background:new 0 0 504 360;" xml:space="preserve">
<style type="text/css">
	.st0{stroke:#FFFFFF;stroke-width:1.0826;stroke-miterlimit:10;}
	.st1{fill:#ED145A;}
	.st2{stroke:#FFFFFF;stroke-width:1.0123;stroke-miterlimit:10;}
	.st3{fill:#0F0F0F;}
	.st4{opacity:0.9;}
</style>
<g id="Layer_1">
</g>
<g id="Layer_2">
	<g>
		<path class="st3" d="M289.04,162.94c0.35-0.18,0.7-0.37,1.06-0.55c0.34-0.17,0.68-0.33,1.03-0.49c0.07-0.03,0.19-0.03,0.22-0.08
			c0.22-0.37,0.69-0.39,1.05-0.56c0.27-0.13,0.51-0.3,0.77-0.43c0.26-0.13,0.54-0.25,0.81-0.37c0.98-0.43,1.96-0.86,2.95-1.28
			c0.5-0.21,1.08-0.34,1.48-0.64c0.54-0.4,1.22-0.54,1.8-0.83c0.47-0.24,1.03-0.36,1.54-0.54c0.22-0.08,0.42-0.18,0.64-0.25
			c0.71-0.26,1.41-0.51,2.12-0.76c0.04-0.02,0.09-0.03,0.13-0.05c0.42-0.26,0.88-0.48,1.23-0.79c0.44-0.39,1-0.57,1.53-0.8
			c0.72-0.31,1.46-0.6,2.18-0.9c0.82-0.35,1.62-0.74,2.45-1.07c0.92-0.37,1.86-0.72,2.81-1.05c0.92-0.32,1.81-0.66,2.64-1.11
			c0.2-0.11,0.45-0.14,0.66-0.22c0.71-0.27,1.41-0.55,2.11-0.82c0.93-0.36,1.87-0.71,2.81-1.06c0.17-0.06,0.37-0.08,0.55-0.09
			c0.51-0.02,1.03,0.01,1.54-0.05c0.53-0.06,0.87,0.22,1.28,0.4c0.52,0.23,0.91,0.59,1.21,1c0.13,0.17,0.16,0.4,0.23,0.6
			c0.02,0.04,0.01,0.11,0.05,0.13c0.48,0.34,0.34,0.82,0.4,1.25c0.02,0.13,0.04,0.26,0,0.38c-0.09,0.27-0.25,0.44-0.59,0.6
			c-0.67,0.32-1.45,0.3-2.11,0.6c-0.62,0.29-1.26,0.56-1.91,0.82c-0.45,0.19-0.92,0.35-1.38,0.53c-0.55,0.21-1.1,0.44-1.65,0.64
			c-0.4,0.15-0.76,0.34-1.14,0.51c-0.54,0.25-1.17,0.35-1.76,0.53c-0.14,0.04-0.25,0.14-0.38,0.2c-0.56,0.26-1.13,0.51-1.69,0.78
			c-0.23,0.11-0.45,0.26-0.67,0.38c-0.35,0.2-0.7,0.42-1.07,0.58c-0.42,0.18-0.88,0.3-1.31,0.48c-0.21,0.09-0.37,0.24-0.56,0.36
			c-0.15,0.09-0.32,0.16-0.48,0.24c-0.43,0.23-0.85,0.48-1.29,0.69c-0.24,0.12-0.53,0.17-0.78,0.28c-0.31,0.14-0.59,0.32-0.89,0.48
			c-0.24,0.13-0.48,0.25-0.72,0.38c-0.06,0.03-0.14,0.05-0.18,0.09c-0.38,0.44-0.96,0.58-1.53,0.77c-0.33,0.11-0.59,0.38-0.88,0.58
			c-0.05,0.03-0.09,0.07-0.14,0.09c-0.61,0.27-1.24,0.52-1.83,0.82c-0.47,0.24-0.9,0.54-1.34,0.82c-0.6,0.38-1.16,0.8-1.79,1.12
			c-0.38,0.19-0.65,0.52-1.01,0.67c-0.63,0.26-1.07,0.73-1.72,0.96c-0.38,0.13-0.69,0.42-1.03,0.64c-0.06,0.04-0.09,0.12-0.14,0.13
			c-0.5,0.08-0.7,0.47-1.05,0.69c-0.32,0.21-0.62,0.44-0.96,0.62c-0.29,0.16-0.27,0.34-0.09,0.53c0.25,0.26,0.52,0.5,0.77,0.76
			c0.38,0.39,0.72,0.8,1.11,1.17c0.44,0.42,0.89,0.84,1.37,1.22c0.76,0.62,1.56,1.21,2.33,1.82c0.22,0.18,0.35,0.44,0.59,0.59
			c0.63,0.41,1.25,0.82,1.75,1.36c0.36,0.4,0.85,0.72,1.29,1.07c0.18,0.14,0.39,0.26,0.58,0.38c0.05,0.03,0.11,0.05,0.14,0.09
			c0.3,0.34,0.57,0.71,0.9,1.03c0.3,0.29,0.65,0.71,1.03,0.76c0.69,0.09,0.84,0.57,1.21,0.87c0.58,0.47,1.15,0.96,1.72,1.44
			c0.8,0.68,1.57,1.38,2.39,2.04c0.36,0.29,0.81,0.48,1.18,0.76c0.27,0.2,0.59,0.32,0.8,0.63c0.24,0.35,0.65,0.63,1.01,0.92
			c0.33,0.27,0.69,0.53,1.03,0.79c0.4,0.3,0.81,0.59,1.21,0.9c0.65,0.51,1.29,1.04,1.94,1.55c0.21,0.16,0.43,0.32,0.67,0.5
			c-0.54,0.3,0.25,0.53,0,0.91c0.21-0.08,0.37-0.11,0.47-0.19c0.18-0.14,0.34-0.13,0.51-0.01c0.35,0.24,0.68,0.5,1.04,0.73
			c0.55,0.33,1.1,0.67,1.84,0.62c0.3-0.02,0.64-0.06,0.88,0.04c0.35,0.15,0.63,0.41,0.94,0.63c0.04,0.77,0.74,1.19,1.28,1.71
			c-0.1,0.49-0.65,0.95-0.18,1.49c-0.29,0.18-0.54,0.34-0.81,0.49c-0.07,0.04-0.18,0.01-0.27,0.02c0-0.06,0-0.12,0-0.2
			c-0.21,0.08-0.43,0.13-0.62,0.23c-0.41,0.22-0.73,0.08-1.08-0.11c-0.26-0.14-0.53-0.27-0.82-0.34c-0.48-0.12-0.97-0.21-1.46-0.3
			c-0.26-0.05-0.52-0.07-0.67-0.29c-0.03-0.05-0.16-0.07-0.25-0.08c-0.42-0.03-0.75-0.18-1.01-0.46c-0.07-0.08-0.15-0.16-0.24-0.22
			c-0.47-0.29-0.96-0.56-1.4-0.87c-0.22-0.15-0.38-0.38-0.5-0.6c-0.09-0.17-0.15-0.28-0.41-0.23c-0.35,0.08-0.45-0.2-0.63-0.36
			c-0.25-0.22-0.52-0.43-0.78-0.64c-0.19-0.16-0.37-0.33-0.57-0.48c-0.21-0.16-0.45-0.3-0.68-0.45c-0.22-0.14-0.45-0.26-0.65-0.42
			c-0.55-0.43-1.08-0.88-1.63-1.31c-0.18-0.14-0.48-0.2-0.61-0.36c-0.29-0.37-0.64-0.65-1.06-0.92c-0.54-0.34-0.96-0.81-1.44-1.21
			c-0.53-0.44-1.08-0.86-1.61-1.3c-0.48-0.4-1-0.78-1.41-1.23c-0.2-0.22-0.42-0.36-0.69-0.51c-0.23-0.13-0.38-0.36-0.58-0.54
			c-0.14-0.13-0.29-0.25-0.44-0.37c-0.24-0.2-0.49-0.38-0.72-0.58c-0.35-0.3-0.67-0.62-1.02-0.92c-0.48-0.42-0.95-0.84-1.45-1.24
			c-0.7-0.57-1.42-1.11-2.13-1.68c-0.72-0.58-1.42-1.17-2.12-1.76c-0.93-0.78-1.86-1.56-2.78-2.34c-0.68-0.58-1.36-1.16-2.02-1.76
			c-0.27-0.24-0.45-0.54-0.71-0.79c-0.13-0.12-0.33-0.23-0.51-0.25c-0.21-0.02-0.4,0.07-0.43,0.31c-0.01,0.11-0.17,0.21-0.28,0.29
			c-0.27,0.22-0.55,0.44-0.84,0.65c-0.32,0.23-0.62,0.47-0.97,0.65c-0.38,0.19-0.71,0.4-0.93,0.74c-0.1,0.16-0.3,0.28-0.46,0.41
			c-0.21,0.16-0.42,0.32-0.64,0.47c-0.36,0.24-0.72,0.47-1.08,0.71c-0.05,0.04-0.13,0.09-0.13,0.14c0.01,0.39-0.34,0.46-0.66,0.58
			c-0.08,0.03-0.14,0.11-0.2,0.17c-0.05,0.04-0.09,0.1-0.15,0.13c-0.79,0.34-1.22,0.99-1.79,1.52c-0.31,0.29-0.67,0.54-1.02,0.78
			c-0.39,0.27-0.76,0.6-1.22,0.76c-0.46,0.16-0.6,0.43-0.76,0.76c-0.08,0.16-0.28,0.28-0.44,0.42c-0.91,0.78-1.79,1.58-2.73,2.33
			c-0.42,0.33-0.76,0.7-1.13,1.06c-0.24,0.23-0.52,0.43-0.77,0.66c-0.08,0.07-0.13,0.16-0.2,0.24c-0.3,0.31-0.6,0.61-0.89,0.91
			c-0.02,0.02-0.07,0.03-0.08,0.06c-0.13,0.26-0.37,0.4-0.69,0.41c-0.48,0-0.97,0.08-1.42-0.16c-0.22-0.12-0.46-0.21-0.69-0.32
			c-0.79-0.34-1.19-0.95-1.43-1.63c-0.11-0.31-0.11-0.64-0.41-0.9c-0.08-0.07-0.07-0.26-0.03-0.38c0.14-0.43,0.07-0.89,0.41-1.28
			c0.23-0.27,0.33-0.63,0.52-0.93c0.08-0.14,0.24-0.25,0.34-0.39c0.23-0.33,0.44-0.66,0.68-0.99c0.48-0.64,0.97-1.27,1.44-1.91
			c0.15-0.2,0.27-0.43,0.4-0.64c0.18-0.27,0.37-0.53,0.55-0.79c0.1-0.14,0.22-0.27,0.28-0.42c0.12-0.3,0.24-0.58,0.56-0.78
			c0.13-0.08,0.13-0.3,0.23-0.43c0.5-0.66,1.02-1.3,1.51-1.96c0.24-0.33,0.39-0.7,0.64-1.02c0.23-0.3,0.57-0.54,0.81-0.84
			c0.42-0.5,0.91-0.94,1.17-1.54c0.15-0.35,0.52-0.62,0.73-0.96c0.38-0.58,0.88-1.12,0.9-1.83c0-0.09,0.05-0.22,0.14-0.27
			c0.52-0.3,0.66-0.8,0.99-1.2c0.12-0.15,0.26-0.28,0.39-0.43c0.06-0.06,0.14-0.13,0.16-0.2c0.19-0.78,0.89-1.34,1.32-2.01
			c0.4-0.62,0.84-1.23,1.21-1.87c0.17-0.3,0.46-0.55,0.69-0.83c-0.03-0.03-0.05-0.06-0.08-0.1c-0.19,0.06-0.4,0.08-0.55,0.17
			c-0.59,0.36-1.24,0.68-1.62,1.25c-0.04,0.05-0.2,0.11-0.26,0.08c-0.25-0.1-0.41,0-0.58,0.13c-0.61,0.46-1.18,0.99-1.86,1.36
			c-0.57,0.3-0.91,0.78-1.48,1.07c-0.29,0.15-0.5,0.4-0.73,0.62c-0.8,0.74-1.57,1.5-2.39,2.23c-0.3,0.27-0.69,0.46-1.01,0.71
			c-0.58,0.45-1.15,0.91-1.7,1.38c-0.81,0.7-1.67,1.35-2.55,1.98c-0.66,0.48-1.32,0.96-1.96,1.46c-0.1,0.08-0.11,0.23-0.14,0.32
			c-0.2,0.12-0.42,0.21-0.6,0.35c-0.59,0.44-1.16,0.89-1.75,1.33c-0.34,0.25-0.72,0.46-1.03,0.72c-0.63,0.53-1.34,0.97-2,1.47
			c-0.44,0.33-0.81,0.71-1.23,1.05c-0.27,0.21-0.59,0.37-0.86,0.58c-0.37,0.28-0.71,0.59-1.09,0.88c-0.24,0.18-0.48,0.39-0.77,0.49
			c-0.41,0.14-0.71,0.36-0.91,0.68c-0.15,0.24-0.41,0.37-0.65,0.53c-0.44,0.29-1.03,0.44-1.29,0.94c-0.12,0.24-0.45,0.4-0.7,0.58
			c-0.37,0.28-0.75,0.56-1.15,0.8c-0.26,0.16-0.6,0.23-0.87,0.38c-0.19,0.11-0.35,0.27-0.49,0.42c-0.25,0.27-0.53,0.48-0.89,0.67
			c-0.43,0.22-0.79,0.55-1.18,0.83c-0.09,0.07-0.15,0.17-0.25,0.22c-0.79,0.35-1.35,0.92-1.98,1.42c-0.32,0.25-0.71,0.43-1.05,0.66
			c-0.5,0.33-0.98,0.69-1.47,1.03c-0.1,0.07-0.21,0.13-0.33,0.18c-0.26,0.12-0.52,0.19-0.67,0.47c-0.13,0.25-0.52,0.4-0.81,0.58
			c-0.32,0.2-0.66,0.39-0.98,0.59c-0.3,0.18-0.6,0.36-0.88,0.56c-0.65,0.46-1.28,0.92-1.92,1.38c-0.09,0.06-0.2,0.1-0.3,0.16
			c-0.16,0.1-0.32,0.2-0.48,0.3c-0.27,0.17-0.55,0.34-0.81,0.52c-0.26,0.18-0.49,0.37-0.74,0.56c-1.03,0.76-2.07,1.51-3.09,2.27
			c-0.16,0.12-0.25,0.31-0.4,0.44c-0.23,0.18-0.48,0.36-0.75,0.5c-0.59,0.29-1.16,0.23-1.71-0.11c-0.28-0.17-0.63-0.27-0.93-0.42
			c-0.12-0.06-0.2-0.17-0.28-0.27c-0.05-0.06-0.06-0.17-0.12-0.21c-0.66-0.38-0.85-0.96-0.98-1.58c-0.03-0.14-0.24-0.29-0.41-0.36
			c-0.28-0.13-0.31-0.26-0.19-0.49c0.25-0.48,0.6-0.88,1.09-1.21c0.07-0.05,0.17-0.11,0.19-0.18c0.18-0.69,0.89-0.91,1.47-1.25
			c0.39-0.23,0.72-0.53,1.1-0.77c0.49-0.32,1.02-0.61,1.51-0.94c0.57-0.38,1.1-0.8,1.66-1.19c0.62-0.43,1.25-0.84,1.87-1.27
			c0.47-0.33,0.92-0.7,1.39-1.03c0.42-0.29,0.89-0.54,1.3-0.84c0.54-0.39,1.04-0.81,1.58-1.21c0.3-0.22,0.64-0.4,0.95-0.61
			c0.57-0.38,1.14-0.76,1.71-1.14c1.08-0.72,2.16-1.44,3.24-2.17c0.02-0.01,0.04-0.02,0.06-0.03c0.59-0.47,1.19-0.94,1.79-1.4
			c0.12-0.09,0.29-0.13,0.42-0.21c0.46-0.29,0.91-0.58,1.36-0.88c0.55-0.36,1.09-0.73,1.63-1.11c0.61-0.43,1.21-0.87,1.81-1.3
			c0.09-0.06,0.17-0.14,0.23-0.23c0.28-0.42,0.67-0.75,1.1-1.06c0.71-0.5,1.41-1.01,2.11-1.52c0.62-0.45,1.25-0.9,1.87-1.36
			c0.36-0.26,0.69-0.55,1.05-0.81c0.28-0.21,0.6-0.39,0.88-0.6c0.68-0.51,1.36-1.01,2.02-1.54c0.54-0.42,1.03-0.88,1.57-1.3
			c0.57-0.45,1.16-0.89,1.75-1.32c0.6-0.44,1.24-0.84,1.81-1.31c0.66-0.55,1.25-1.16,1.88-1.75c0.21-0.19,0.44-0.37,0.64-0.57
			c0.07-0.07,0.12-0.18,0.1-0.26c-0.01-0.05-0.17-0.1-0.26-0.1c-1.16-0.11-2.32-0.22-3.49-0.3c-0.5-0.04-1-0.03-1.5-0.04
			c-2-0.05-3.98,0.12-5.94,0.37c-0.91,0.12-1.81,0.33-2.72,0.5c-0.41,0.08-0.83,0.18-1.25,0.22c-0.26,0.02-0.54-0.06-0.81-0.07
			c-0.11,0-0.25,0.02-0.33,0.08c-0.42,0.26-0.88,0.38-1.39,0.42c-0.31,0.03-0.62,0.09-0.91,0.2c-0.67,0.25-1.32,0.55-1.99,0.81
			c-0.64,0.26-1.28,0.52-1.93,0.76c-0.15,0.06-0.33,0.05-0.49,0.09c-0.21,0.05-0.43,0.08-0.61,0.17c-0.28,0.13-0.69,0.09-1-0.12
			c-0.38-0.26-0.73-0.54-1.29-0.57c-0.23-0.01-0.46-0.31-0.63-0.51c-0.13-0.16-0.18-0.37-0.27-0.56c-0.14-0.28-0.36-0.31-0.63-0.12
			c-0.49,0.33-0.99,0.65-1.47,0.99c-0.49,0.35-0.96,0.71-1.44,1.07c-0.33,0.25-0.65,0.52-1,0.76c-0.32,0.22-0.66,0.42-0.99,0.62
			c-0.05,0.03-0.09,0.06-0.14,0.09c-0.31,0.25-0.64,0.5-0.93,0.76c-0.28,0.26-0.53,0.55-0.81,0.82c-0.11,0.1-0.23,0.21-0.38,0.26
			c-0.52,0.19-0.91,0.51-1.27,0.86c-0.19,0.19-0.4,0.36-0.61,0.53c-0.02,0.01-0.04,0.03-0.06,0.03c-0.45-0.08-0.43,0.27-0.63,0.45
			c-0.6,0.55-1.23,1.06-1.87,1.58c-0.07,0.06-0.21,0.06-0.25,0.13c-0.21,0.18-0.39,0.42-0.64,0.54c-0.5,0.24-0.94,0.58-1.1,1
			c-0.16,0.4-0.54,0.51-0.81,0.75c-0.24,0.22-0.48,0.45-0.74,0.66c-0.48,0.38-0.98,0.73-1.45,1.11c-0.41,0.34-0.76,0.72-1.16,1.05
			c-0.22,0.19-0.48,0.37-0.76,0.49c-0.27,0.11-0.42,0.27-0.54,0.49c-0.06,0.12-0.15,0.27-0.26,0.31c-0.47,0.16-0.57,0.57-0.89,0.83
			c-0.09,0.07-0.18,0.2-0.28,0.21c-0.31,0.03-0.41,0.22-0.56,0.41c-0.24,0.32-0.51,0.63-0.81,0.91c-0.73,0.67-1.5,1.32-2.23,2
			c-0.25,0.23-0.4,0.54-0.6,0.81c-0.04,0.05-0.07,0.12-0.13,0.14c-0.55,0.21-0.84,0.63-1.22,0.99c-0.47,0.45-1.01,0.84-1.5,1.27
			c-0.24,0.21-0.42,0.46-0.64,0.68c-0.45,0.45-0.91,0.9-1.37,1.34c-0.65,0.63-1.29,1.26-1.95,1.89c-0.07,0.07-0.17,0.11-0.25,0.17
			c-0.24,0.16-0.52,0.28-0.44,0.62c0.03,0.11-0.14,0.27-0.25,0.39c-0.25,0.27-0.53,0.53-0.79,0.8c-0.36,0.37-0.73,0.74-1.06,1.13
			c-0.46,0.55-0.89,1.11-1.32,1.67c-0.37,0.47-0.73,0.94-1.1,1.41c-0.06,0.08-0.17,0.13-0.25,0.2c-0.09,0.08-0.17,0.16-0.24,0.24
			c-0.19,0.21-0.34,0.45-0.57,0.63c-0.14,0.1-0.39,0.15-0.59,0.14c-0.72-0.05-1.35-0.3-1.96-0.61c-0.37-0.19-0.73-0.37-0.93-0.71
			c-0.07-0.12-0.13-0.25-0.22-0.37c-0.21-0.29-0.33-0.6-0.33-0.95c0-0.26-0.17-0.49-0.53-0.48c-0.14-0.72,0.32-1.25,0.75-1.78
			c0.44-0.54,0.89-1.08,1.33-1.63c0.61-0.76,1.23-1.52,1.81-2.3c0.39-0.53,0.73-1.09,1.1-1.63c0.18-0.27,0.38-0.53,0.59-0.79
			c0.49-0.63,1-1.25,1.48-1.89c0.47-0.61,0.9-1.25,1.38-1.86c0.68-0.87,1.38-1.74,2.08-2.6c0.3-0.37,0.62-0.73,0.92-1.1
			c0.61-0.76,1.2-1.52,1.81-2.27c0.51-0.63,1.04-1.25,1.55-1.87c0.89-1.08,1.78-2.17,2.68-3.25c0.19-0.23,0.42-0.44,0.62-0.66
			c0.76-0.89,1.51-1.79,2.28-2.68c0.64-0.75,1.23-1.54,1.95-2.22c0.56-0.52,0.82-1.19,1.38-1.7c0.18-0.16,0.39-0.31,0.54-0.48
			c0.23-0.26,0.42-0.55,0.63-0.83c0.07-0.09,0.13-0.2,0.23-0.27c0.48-0.34,0.59-0.86,0.85-1.3c0.14-0.23,0.36-0.42,0.53-0.63
			c0.08-0.1,0.12-0.23,0.13-0.38c-0.38,0.06-0.7,0.11-0.92,0.42c-0.27,0.37-0.77,0.49-1.25,0.57c-0.21,0.03-0.34,0.08-0.44,0.25
			c-0.07,0.12-0.21,0.25-0.35,0.27c-0.35,0.06-0.61,0.17-0.75,0.46c-0.18,0.38-0.62,0.39-0.99,0.49c-0.11,0.03-0.25,0.06-0.31,0.13
			c-0.5,0.6-1.27,0.84-2.04,1.08c-0.16,0.05-0.32,0.15-0.43,0.26c-0.49,0.49-1.07,0.86-1.75,1.14c-0.31,0.13-0.57,0.36-0.85,0.54
			c-0.08,0.06-0.16,0.13-0.25,0.16c-0.81,0.27-1.41,0.81-2.12,1.21c-0.42,0.24-0.9,0.42-1.31,0.67c-0.56,0.34-1.17,0.63-1.64,1.1
			c-0.33,0.32-0.86,0.49-1.29,0.73c-0.07,0.04-0.17,0.06-0.21,0.11c-0.57,0.72-1.56,0.99-2.28,1.55c-0.39,0.31-0.76,0.63-1.15,0.94
			c-0.17,0.14-0.34,0.29-0.53,0.4c-0.56,0.31-1.05,0.68-1.49,1.1c-0.42,0.4-0.93,0.75-1.41,1.11c-0.28,0.21-0.6,0.39-0.88,0.61
			c-0.13,0.1-0.2,0.27-0.33,0.38c-0.23,0.19-0.5,0.36-0.73,0.55c-0.35,0.28-0.68,0.58-1.02,0.87c-0.38,0.31-0.75,0.63-1.15,0.93
			c-0.31,0.23-0.65,0.43-0.98,0.64c-0.03,0.02-0.07,0.04-0.07,0.06c-0.01,0.49-0.59,0.58-0.86,0.88c-0.28,0.32-0.54,0.7-0.92,0.91
			c-0.61,0.33-0.99,0.82-1.47,1.24c-0.14,0.13-0.21,0.31-0.33,0.45c-0.11,0.13-0.24,0.26-0.38,0.38c-0.2,0.18-0.42,0.34-0.6,0.53
			c-0.24,0.25-0.43,0.53-0.69,0.76c-0.58,0.53-1.21,1.02-1.77,1.55c-0.34,0.33-0.6,0.72-0.89,1.08c-0.05,0.07-0.08,0.15-0.15,0.2
			c-0.33,0.28-0.7,0.54-0.99,0.85c-0.48,0.51-0.9,1.07-1.38,1.59c-0.2,0.22-0.48,0.38-0.71,0.58c-0.13,0.11-0.22,0.25-0.33,0.37
			c-0.12,0.14-0.23,0.27-0.36,0.41c-0.44,0.47-0.87,0.95-1.32,1.41c-0.24,0.25-0.56,0.44-0.79,0.69c-0.39,0.41-0.73,0.84-1.11,1.26
			c-0.15,0.16-0.32,0.31-0.48,0.46c-0.11,0.1-0.23,0.2-0.35,0.29c-0.15,0.12-0.31,0.23-0.47,0.34c-0.05,0.04-0.12,0.07-0.16,0.11
			c-0.21,0.21-0.42,0.43-0.64,0.64c-0.35,0.33-0.8,0.43-1.31,0.34c-0.41-0.08-0.83-0.15-1.22-0.27c-0.19-0.06-0.33-0.21-0.49-0.32
			c-0.12-0.08-0.21-0.22-0.34-0.25c-0.63-0.14-1.09-0.46-1.36-0.94c-0.14-0.25-0.19-0.55-0.22-0.84c-0.03-0.31-0.15-0.56-0.39-0.79
			c-0.08-0.07-0.14-0.21-0.11-0.29c0.13-0.39,0.17-0.87,0.47-1.15c0.4-0.37,0.39-0.85,0.69-1.24c0.29-0.39,0.42-0.87,0.63-1.3
			c0.05-0.11,0.15-0.21,0.21-0.32c0.16-0.28,0.3-0.56,0.46-0.84c0.03-0.05,0.06-0.11,0.1-0.16c0.46-0.61,0.97-1.19,1.37-1.83
			c0.32-0.51,0.83-0.91,1.03-1.49c0.1-0.29,0.45-0.51,0.68-0.76c0.06-0.06,0.16-0.12,0.17-0.19c0.04-0.42,0.45-0.63,0.69-0.94
			c0.3-0.4,0.49-0.87,0.8-1.27c0.23-0.29,0.29-0.68,0.7-0.88c0.13-0.06,0.26-0.2,0.31-0.32c0.2-0.53,0.65-0.93,1.02-1.38
			c0.21-0.26,0.4-0.54,0.57-0.82c0.16-0.27,0.29-0.55,0.64-0.7c0.08-0.03,0.12-0.12,0.17-0.19c0.17-0.2,0.34-0.41,0.51-0.61
			c0.05-0.06,0.14-0.1,0.16-0.16c0.17-0.64,0.83-1.03,1.14-1.61c0.06-0.11,0.09-0.24,0.13-0.36c-0.03-0.01-0.05-0.03-0.08-0.04
			c-0.09,0.06-0.18,0.11-0.25,0.18c-0.44,0.42-0.87,0.85-1.31,1.28c-0.02,0.02-0.04,0.05-0.07,0.07c-0.68,0.57-1.36,1.13-2.03,1.71
			c-0.08,0.07-0.09,0.18-0.15,0.26c-0.04,0.06-0.11,0.12-0.17,0.18c-0.24,0.22-0.49,0.45-0.74,0.67c-0.24,0.2-0.49,0.39-0.72,0.6
			c-0.12,0.11-0.23,0.25-0.31,0.39c-0.23,0.4-0.54,0.76-0.95,1.02c-0.41,0.26-0.91,0.43-1.05,0.92c-0.03,0.11-0.22,0.18-0.33,0.26
			c-0.61,0.45-1.04,1-1.41,1.61c-0.11,0.18-0.36,0.28-0.52,0.44c-0.13,0.14-0.48,0.18-0.33,0.47c0.01,0.02-0.06,0.08-0.11,0.1
			c-0.54,0.2-0.86,0.62-1.22,0.98c-0.45,0.46-0.8,0.98-1.21,1.47c-0.25,0.3-0.59,0.53-0.9,0.78c-0.28,0.22-0.44,0.55-0.65,0.83
			c-0.03,0.04-0.05,0.12-0.08,0.13c-0.61,0.13-0.51,0.7-0.88,0.98c-0.36,0.27-0.68,0.57-1.01,0.87c-0.09,0.08-0.17,0.18-0.24,0.28
			c-0.09,0.14-0.13,0.34-0.26,0.42c-0.64,0.34-0.95,0.85-1.12,1.44c-0.01,0.03-0.02,0.07-0.04,0.08c-0.68,0.21-0.77,0.89-1.35,1.19
			c-0.2,0.1-0.29,0.36-0.43,0.54c-0.23,0.3-0.43,0.62-0.68,0.9c-0.21,0.24-0.47,0.45-0.71,0.67c-0.55,0.51-1.09,1.02-1.64,1.53
			c-0.45,0.42-0.89,0.86-1.39,1.25c-0.26,0.2-0.63,0.29-0.95,0.43c-0.05,0.02-0.13,0-0.17,0.03c-0.59,0.35-1.13,0.09-1.66-0.12
			c-0.11-0.04-0.27-0.14-0.27-0.22c-0.03-0.25-0.23-0.31-0.45-0.36c-0.73-0.18-1.08-0.7-1.46-1.18c-0.09-0.11-0.05-0.29-0.06-0.44
			c-0.03-0.4-0.06-0.8-0.1-1.2c0-0.06-0.05-0.11-0.06-0.17c-0.02-0.15-0.07-0.3-0.05-0.44c0.06-0.38,0.12-0.76,0.22-1.13
			c0.08-0.29,0.21-0.57,0.32-0.85c0.04-0.11,0.07-0.21,0.1-0.32c0.08-0.32,0.16-0.64,0.25-0.95c0.02-0.07,0.09-0.14,0.14-0.2
			c0.05-0.07,0.15-0.13,0.15-0.2c0-0.64,0.48-1.14,0.66-1.72c0.12-0.38,0.34-0.75,0.46-1.11c0.32-0.98,0.94-1.84,1.3-2.8
			c0.18-0.46,0.33-0.93,0.49-1.4c0.01-0.03,0.01-0.07,0.03-0.08c0.44-0.27,0.45-0.73,0.66-1.1c0.42-0.75,0.81-1.5,1.21-2.26
			c0.34-0.63,0.67-1.27,1.02-1.9c0.39-0.71,0.79-1.43,1.19-2.13c0.11-0.19,0.27-0.36,0.39-0.55c0.07-0.1,0.11-0.22,0.17-0.32
			c0.23-0.43,0.45-0.87,0.7-1.3c0.32-0.54,0.65-1.08,0.98-1.61c0.1-0.16,0.23-0.29,0.33-0.45c0.12-0.18,0.21-0.38,0.31-0.57
			c0.11-0.21,0.21-0.42,0.34-0.62c0.28-0.45,0.55-0.91,0.88-1.34c0.32-0.43,0.67-0.85,1.08-1.22c0.34-0.3,0.8-0.42,1.31-0.23
			c0.48,0.18,0.97,0.33,1.43,0.53c0.17,0.07,0.27,0.26,0.4,0.39c0.07,0.07,0.15,0.16,0.24,0.17c0.33,0.04,0.47,0.23,0.58,0.45
			c0.19,0.37,0.39,0.75,0.51,1.14c0.06,0.19,0,0.44-0.12,0.61c-0.2,0.31-0.49,0.58-0.74,0.87c-0.23,0.28-0.43,0.57-0.67,0.84
			c-0.4,0.44-0.68,0.94-1.13,1.36c-0.31,0.28-0.43,0.71-0.64,1.08c-0.03,0.05-0.03,0.12-0.07,0.14c-0.47,0.26-0.55,0.73-0.83,1.1
			c-0.29,0.37-0.47,0.8-0.7,1.21c-0.3,0.53-0.56,1.08-0.89,1.6c-0.67,1.05-1.2,2.16-1.75,3.26c-0.08,0.17-0.26,0.31-0.4,0.46
			c-0.21,0.24-0.37,0.48-0.39,0.82c-0.02,0.28-0.19,0.57-0.33,0.84c-0.28,0.55-0.58,1.09-0.86,1.64c-0.16,0.32-0.3,0.64-0.42,0.97
			c-0.04,0.09,0.02,0.21,0.04,0.32c0.04,0.01,0.08,0.02,0.12,0.03c0.26-0.28,0.52-0.57,0.79-0.84c0.15-0.15,0.32-0.29,0.48-0.44
			c0.11-0.09,0.21-0.18,0.33-0.27c0.14-0.11,0.27-0.22,0.43-0.31c0.39-0.21,0.77-0.39,0.96-0.81c0.13-0.27,0.49-0.45,0.72-0.69
			c0.62-0.67,1.22-1.35,1.84-2.02c0.42-0.47,0.84-0.94,1.28-1.39c0.23-0.23,0.53-0.42,0.78-0.65c0.33-0.31,0.64-0.63,0.96-0.95
			c0.39-0.4,0.78-0.8,1.17-1.2c0.05-0.05,0.14-0.07,0.2-0.12c0.22-0.2,0.45-0.4,0.66-0.61c0.16-0.16,0.29-0.33,0.45-0.5
			c0.35-0.36,0.69-0.74,1.07-1.08c0.57-0.52,1.19-1,1.77-1.52c0.17-0.15,0.26-0.36,0.42-0.52c0.2-0.21,0.44-0.39,0.65-0.59
			c0.16-0.15,0.29-0.31,0.46-0.45c0.6-0.49,1.2-0.98,1.8-1.47c0.09-0.08,0.21-0.16,0.24-0.26c0.08-0.29,0.33-0.37,0.61-0.45
			c0.25-0.07,0.44-0.17,0.48-0.42c0.05-0.31,0.4-0.41,0.63-0.59c0.56-0.43,1.11-0.88,1.65-1.33c0.35-0.3,0.65-0.64,1.02-0.92
			c0.46-0.35,0.97-0.65,1.43-0.99c0.36-0.27,0.65-0.59,1-0.86c0.48-0.38,1-0.73,1.48-1.12c0.3-0.24,0.56-0.52,0.83-0.78
			c0.11-0.11,0.19-0.23,0.29-0.35c0.03,0.02,0.06,0.03,0.1,0.05c-0.03,0.08-0.06,0.16-0.08,0.22c0.4-0.26,0.81-0.52,1.21-0.79
			c0.14-0.1,0.25-0.23,0.38-0.35c0.06-0.06,0.12-0.12,0.19-0.17c0.63-0.41,1.27-0.79,1.88-1.21c0.78-0.53,1.54-1.08,2.29-1.63
			c0.3-0.22,0.55-0.47,0.84-0.69c0.12-0.09,0.29-0.14,0.43-0.2c0.23-0.1,0.61-0.07,0.51-0.44c-0.01-0.04,0.07-0.1,0.12-0.14
			c0.43-0.33,0.91-0.58,1.49-0.69c0.09-0.02,0.18-0.05,0.25-0.1c0.38-0.28,0.75-0.58,1.13-0.86c0.21-0.15,0.5-0.24,0.66-0.42
			c0.27-0.31,0.65-0.45,1.04-0.59c0.06-0.02,0.13-0.06,0.17-0.11c0.55-0.72,1.52-1.06,2.17-1.68c0.12-0.11,0.34-0.15,0.49-0.24
			c0.22-0.14,0.4-0.31,0.63-0.43c0.27-0.15,0.57-0.27,0.92-0.43c-0.01,0.34,0.16,0.35,0.39,0.29c0.6-0.17,1.07,0.01,1.52,0.37
			c0.38,0.3,0.84,0.53,1.27,0.79c0.35,0.21,0.35,0.22,0.06,0.5c-0.04,0.04-0.07,0.08-0.12,0.13c0.08,0.05,0.14,0.1,0.21,0.13
			c0.61,0.27,0.74,0.6,0.33,1.06c-0.31,0.36-0.71,0.67-1.08,0.98c-0.55,0.47-1.11,0.93-1.68,1.38c-0.12,0.1-0.31,0.14-0.45,0.23
			c-0.18,0.11-0.44,0.2-0.5,0.35c-0.13,0.35-0.41,0.58-0.7,0.82c-0.26,0.21-0.46,0.47-0.73,0.67c-0.35,0.27-0.73,0.5-1.09,0.75
			c-0.09,0.07-0.13,0.19-0.2,0.29c-0.07,0.11-0.11,0.25-0.21,0.33c-0.3,0.23-0.64,0.43-0.95,0.66c-0.07,0.05-0.1,0.13-0.15,0.2
			c-0.19,0.21-0.19,0.53-0.6,0.62c-0.16,0.04-0.36,0.24-0.37,0.38c-0.03,0.42-0.43,0.54-0.73,0.75c-0.27,0.19-0.52,0.41-0.74,0.64
			c-0.35,0.37-0.55,0.84-1.09,1.09c-0.18,0.08-0.31,0.25-0.45,0.39c-0.49,0.51-0.92,1.08-1.48,1.54c-0.37,0.3-0.69,0.62-1.01,0.94
			c-0.26,0.26-0.45,0.58-0.69,0.86c-0.06,0.07-0.14,0.14-0.22,0.18c-0.39,0.16-0.63,0.43-0.84,0.73c-0.2,0.28-0.47,0.52-0.71,0.77
			c-0.17,0.18-0.35,0.34-0.51,0.53c-0.13,0.14-0.22,0.31-0.35,0.45c-0.24,0.24-0.46,0.47-0.58,0.78c-0.09,0.21-0.34,0.38-0.52,0.56
			c-0.15,0.14-0.36,0.26-0.44,0.43c-0.07,0.14,0,0.34,0.01,0.51c0.03,0,0.06,0,0.09,0c-0.06,0.13-0.13,0.26-0.19,0.38
			c-0.67-0.02-1.29,0.4-1.54,0.93c-0.18,0.37-0.51,0.69-0.77,1.03c-0.15,0.19-0.3,0.38-0.45,0.57c0.03,0.02,0.06,0.05,0.09,0.07
			c0.2-0.12,0.49-0.21,0.59-0.37c0.24-0.41,0.76-0.55,1.08-0.88c0.28-0.29,0.66-0.52,0.95-0.81c0.17-0.17,0.24-0.43,0.42-0.58
			c0.47-0.38,0.98-0.72,1.47-1.07c0.1-0.07,0.17-0.16,0.27-0.24c0.28-0.21,0.56-0.42,0.84-0.63c0.27-0.19,0.55-0.37,0.81-0.57
			c0.29-0.22,0.57-0.45,0.85-0.68c0.17-0.14,0.3-0.31,0.47-0.45c0.55-0.44,1.11-0.88,1.66-1.32c0.53-0.44,1.03-0.9,1.59-1.32
			c0.48-0.36,1.08-0.62,1.51-1.02c0.35-0.32,0.79-0.49,1.17-0.75c0.67-0.46,1.37-0.9,2.05-1.36c0.45-0.31,0.88-0.64,1.33-0.95
			c0.09-0.06,0.19-0.13,0.29-0.18c0.82-0.39,1.54-0.89,2.29-1.37c0.78-0.49,1.63-0.9,2.44-1.36c0.61-0.35,1.2-0.72,1.81-1.06
			c0.2-0.12,0.44-0.19,0.65-0.3c0.84-0.47,1.66-0.96,2.51-1.42c0.94-0.51,1.9-0.98,2.85-1.48c0.84-0.44,1.62-0.96,2.5-1.33
			c0.96-0.4,1.78-0.97,2.74-1.37c0.82-0.34,1.55-0.81,2.33-1.22c0.53-0.28,1.06-0.57,1.6-0.85c1.05-0.54,2.1-1.1,3.16-1.62
			c0.64-0.32,1.32-0.6,1.98-0.89c0.05-0.02,0.13-0.03,0.16-0.06c0.44-0.47,1.14-0.39,1.71-0.56c0.13-0.04,0.33,0.1,0.49,0.17
			c0.12,0.06,0.2,0.2,0.32,0.22c0.91,0.2,1.29,0.89,1.86,1.41c0.07,0.07,0.1,0.18,0.13,0.27c0.07,0.19,0.09,0.4,0.2,0.57
			c0.42,0.69,0.4,1.25-0.3,1.73c-0.43,0.3-0.57,0.72-0.91,1.06c-0.47,0.46-0.87,0.97-1.32,1.45c-0.43,0.46-0.97,0.87-1.3,1.38
			c-0.42,0.64-1.19,1-1.64,1.59c-0.58,0.77-1.42,1.39-1.78,2.28c-0.02,0.04-0.03,0.08-0.07,0.1c-0.54,0.29-0.82,0.74-1.16,1.18
			c-0.46,0.59-1.07,1.1-1.6,1.66c-0.33,0.35-0.63,0.72-0.94,1.08c0.02,0.02,0.04,0.05,0.06,0.07c0.14-0.08,0.28-0.15,0.41-0.24
			c0.78-0.52,1.56-1.04,2.33-1.58c0.43-0.3,0.83-0.63,1.25-0.94c0.1-0.07,0.2-0.17,0.31-0.19c0.49-0.1,0.77-0.41,1.11-0.68
			c0.47-0.36,0.97-0.7,1.46-1.05c0.71-0.51,1.42-1.02,2.14-1.52c0.73-0.5,1.44-1.03,2.23-1.45c0.57-0.3,1.01-0.73,1.57-1.04
			c0.57-0.31,1.09-0.69,1.64-1.02c0.66-0.4,1.34-0.79,2.01-1.19c0.16-0.1,0.31-0.22,0.47-0.32c0.54-0.31,1.14-0.56,1.63-0.92
			c0.83-0.6,1.8-1,2.7-1.5c1.09-0.61,2.19-1.22,3.3-1.79c0.6-0.31,1.25-0.54,1.87-0.82c0.3-0.14,0.56-0.35,0.86-0.48
			c0.77-0.34,1.57-0.64,2.33-0.99c0.68-0.31,1.34-0.65,2.01-0.98c0.26-0.13,0.5-0.27,0.76-0.39c0.1-0.05,0.24-0.14,0.32-0.12
			c0.55,0.18,0.9-0.12,1.29-0.38c0.14,0.19,0.47,0.25,0.37,0.55c-0.01,0.03,0.14,0.15,0.21,0.14c0.51-0.03,0.84,0.14,1.03,0.55
			c0.05,0.11,0.24,0.16,0.34,0.26c0.17,0.16,0.37,0.33,0.46,0.52c0.26,0.56,0.45,1.14,0.46,1.76c0,0.21-0.09,0.37-0.29,0.48
			c-0.27,0.15-0.54,0.3-0.81,0.45c-0.07,0.04-0.13,0.09-0.19,0.13c-0.41,0.32-0.82,0.64-1.22,0.96c-0.23,0.19-0.46,0.38-0.7,0.56
			c-1.02,0.76-2.04,1.51-3.06,2.27c-0.61,0.45-1.23,0.9-1.85,1.35c-0.1,0.08-0.18,0.18-0.26,0.37c0.35,0.01,0.71,0.01,1.06,0.02
			c0.08,0,0.16-0.03,0.25-0.04c1.13-0.04,2.27-0.12,3.4-0.11c1.27,0.02,2.56,0.01,3.82,0.26c0.86,0.17,1.77,0.19,2.62,0.4
			c0.81,0.2,1.57,0.55,2.36,0.83c0.22,0.08,0.45,0.14,0.66,0.22c0.94,0.39,1.71,0.97,2.51,1.53c0.26,0.18,0.44,0.28,0.73,0.05
			c0.13-0.1,0.34-0.14,0.52-0.2c0.87-0.28,1.5-0.84,2.2-1.33c0.6-0.43,1.24-0.82,1.86-1.23c0.31-0.2,0.63-0.39,0.93-0.6
			c0.58-0.4,1.14-0.81,1.72-1.21c0.11-0.08,0.24-0.13,0.36-0.2c0.63-0.36,1.27-0.71,1.89-1.08c0.23-0.14,0.41-0.34,0.62-0.5
			c0.61-0.45,1.23-0.88,1.85-1.33c0.53-0.38,0.98-0.82,1.34-1.32c0.17-0.23,0.28-0.5,0.46-0.72c0.37-0.45,0.93-0.53,1.52-0.47
			c0.23,0.02,0.42,0.04,0.57-0.14c0.04-0.05,0.19-0.1,0.24-0.08c0.71,0.29,1.45,0.55,1.76,1.25c0.04,0.09,0.08,0.21,0.17,0.26
			c0.31,0.17,0.4,0.42,0.47,0.7c0.06,0.26,0.22,0.51,0.27,0.78c0.04,0.26,0.02,0.53-0.03,0.78c-0.12,0.68-0.65,1.21-0.95,1.82
			c-0.05,0.09-0.09,0.2-0.17,0.26c-0.31,0.23-0.49,0.53-0.66,0.84c-0.13,0.24-0.35,0.44-0.52,0.67c-0.07,0.09-0.1,0.2-0.15,0.3
			c-0.04,0.08-0.06,0.17-0.11,0.25c-0.41,0.58-0.87,1.14-1.24,1.74c-0.35,0.58-0.75,1.12-1.17,1.66c-0.3,0.37-0.46,0.81-0.74,1.2
			c-0.2,0.29-0.5,0.52-0.73,0.79c-0.14,0.16-0.22,0.35-0.33,0.52C288.97,162.87,289,162.91,289.04,162.94z M287.68,164.79
			c-0.21,0.27-0.38,0.49-0.54,0.71c-0.45,0.67-0.89,1.35-1.35,2.01c-0.27,0.38-0.59,0.74-0.88,1.12c-0.04,0.05-0.04,0.11-0.07,0.17
			c-0.07,0.14-0.13,0.28-0.24,0.4c-0.14,0.15-0.32,0.28-0.49,0.42c0.32,0.24,0.49,0.07,0.66-0.06c0.1-0.07,0.17-0.17,0.27-0.23
			c0.26-0.17,0.53-0.32,0.78-0.5c0.52-0.36,1.02-0.75,1.54-1.1c0.2-0.14,0.41-0.5,0.36-0.7c-0.06-0.27-0.13-0.54-0.13-0.81
			C287.59,165.76,287.65,165.31,287.68,164.79z M319.28,192.85c0.18-0.05,0.34-0.06,0.44-0.13c0.1-0.08,0.23-0.27,0.19-0.31
			c-0.09-0.1-0.27-0.16-0.43-0.21c-0.05-0.01-0.19,0.06-0.19,0.11C319.27,192.47,319.28,192.65,319.28,192.85z"/>
		<path class="st3" d="M278.33,153.13c-0.59,0.13-1.12,0.29-1.67,0.36c-0.62,0.09-1.26,0.12-1.89,0.14
			c-0.61,0.02-1.1-0.28-1.64-0.47c-0.47-0.17-0.73-0.53-1.14-0.74c-0.25-0.13-0.53-0.19-0.8-0.28c-0.02-0.01-0.05,0-0.07-0.01
			c-0.12-0.03-0.64-0.61-0.65-0.72c-0.04-0.46,0.15-0.87,0.35-1.28c0.22-0.44,0.4-0.88,0.21-1.37c-0.04-0.1,0.05-0.28,0.15-0.35
			c0.13-0.1,0.34-0.14,0.51-0.2c0.24-0.08,0.52-0.1,0.62-0.35c0.02-0.05,0.1-0.09,0.17-0.11c0.56-0.13,1.12-0.26,1.69-0.38
			c0.45-0.09,0.9-0.15,1.35-0.24c0.31-0.06,0.59-0.09,0.89,0.07c0.62,0.34,1.3,0.61,1.88,0.98c0.49,0.32,0.95,0.7,1.14,1.24
			c0.03,0.07,0.1,0.14,0.13,0.21c0.06,0.15,0.2,0.32,0.16,0.45c-0.18,0.55-0.09,1.15-0.48,1.65c-0.08,0.11-0.09,0.27-0.1,0.4
			c-0.03,0.3-0.31,0.6-0.65,0.63C278.25,152.79,278.12,152.84,278.33,153.13z"/>
	</g>
</g>
</svg>
