<?xml version="1.0" encoding="UTF-8"?>
<!DOCTYPE svg PUBLIC "-//W3C//DTD SVG 1.1//EN" "http://www.w3.org/Graphics/SVG/1.1/DTD/svg11.dtd">
<svg xmlns="http://www.w3.org/2000/svg" version="1.1" width="200px" height="46px" style="shape-rendering:geometricPrecision; text-rendering:geometricPrecision; image-rendering:optimizeQuality; fill-rule:evenodd; clip-rule:evenodd" xmlns:xlink="http://www.w3.org/1999/xlink">
<g><path style="opacity:1" fill="#000" d="M -0.5,-0.5 C 2.16667,-0.5 4.83333,-0.5 7.5,-0.5C 9.61997,5.74019 12.2866,11.7402 15.5,17.5C 18.7109,11.7447 21.3775,5.74466 23.5,-0.5C 25.5,-0.5 27.5,-0.5 29.5,-0.5C 29.8333,0.833333 30.1667,0.833333 30.5,-0.5C 31.1667,-0.5 31.8333,-0.5 32.5,-0.5C 32.988,2.71066 32.3213,5.544 30.5,8C 30.9574,8.41395 31.2907,8.91395 31.5,9.5C 29.5487,21.317 28.882,33.317 29.5,45.5C 28.8333,45.5 28.1667,45.5 27.5,45.5C 26.0705,32.5573 25.2372,19.5573 25,6.5C 20.7041,14.4215 17.5375,22.7548 15.5,31.5C 12.6298,23.3906 9.46312,15.3906 6,7.5C 5.66667,15.5 5.33333,23.5 5,31.5C 4.7978,33.2556 4.2978,34.9223 3.5,36.5C 2.66758,25.5151 2.16758,14.5151 2,3.5C 1.87838,5.437 1.04504,6.77033 -0.5,7.5C -0.5,4.83333 -0.5,2.16667 -0.5,-0.5 Z"/></g>
<g><path style="opacity:1" fill="#000" d="M 37.5,-0.5 C 38.8333,-0.5 40.1667,-0.5 41.5,-0.5C 42.6812,1.98628 42.3479,4.31962 40.5,6.5C 40.8868,8.27435 41.5535,9.94102 42.5,11.5C 41.86,20.1385 41.1934,28.8052 40.5,37.5C 39.8333,36.5 39.1667,35.5 38.5,34.5C 37.6685,26.8549 37.1685,19.1883 37,11.5C 36.8078,13.5767 36.3078,15.5767 35.5,17.5C 34.52,14.9135 34.1866,12.2469 34.5,9.5C 35.552,9.64945 36.552,9.48278 37.5,9C 36.208,5.83467 36.208,2.66801 37.5,-0.5 Z"/></g>
<g><path style="opacity:1" fill="#000" d="M 78.5,-0.5 C 82.5,-0.5 86.5,-0.5 90.5,-0.5C 90.0522,3.5245 89.3855,7.5245 88.5,11.5C 86.8901,8.31613 85.8901,4.9828 85.5,1.5C 80.4989,0.671401 78.3322,2.6714 79,7.5C 83.1406,10.245 87.1406,13.245 91,16.5C 91.6667,18.8333 91.6667,21.1667 91,23.5C 88.7664,25.6998 86.2664,27.5331 83.5,29C 84.5887,31.2629 83.922,33.0963 81.5,34.5C 81.481,29.6293 79.1477,27.2959 74.5,27.5C 73.9547,24.0024 74.788,21.0024 77,18.5C 77.4966,20.8098 77.6633,23.1432 77.5,25.5C 79.5,25.5 81.5,25.5 83.5,25.5C 83.6646,22.4816 83.498,19.4816 83,16.5C 80.6667,15.1667 78.3333,13.8333 76,12.5C 72.1775,7.16147 73.0109,2.82814 78.5,-0.5 Z M 85.5,18.5 C 87.9422,20.1393 88.1089,22.1393 86,24.5C 85.5045,22.5273 85.3379,20.5273 85.5,18.5 Z"/></g>
<g><path style="opacity:1" fill="#000" d="M 98.5,3.5 C 99.3764,3.36912 100.043,3.70245 100.5,4.5C 99.6906,6.07092 99.3573,7.73759 99.5,9.5C 101.467,9.73943 103.301,9.40609 105,8.5C 105.821,11.5541 105.655,14.5541 104.5,17.5C 103.692,15.5767 103.192,13.5767 103,11.5C 102.2,22.5164 101.2,22.8498 100,12.5C 99.3333,16.5 99.3333,20.5 100,24.5C 102.027,24.9863 104.193,24.9863 106.5,24.5C 106.992,28.2896 106.159,28.9563 104,26.5C 101.571,27.0293 99.7381,28.3626 98.5,30.5C 97.4164,29.3349 96.5831,28.0016 96,26.5C 95.6667,21.5 95.3333,16.5 95,11.5C 94.8295,13.7148 94.1628,15.7148 93,17.5C 92.1816,14.7728 92.3483,12.1062 93.5,9.5C 95.8628,8.06924 97.5295,6.06924 98.5,3.5 Z"/></g>
<g><path style="opacity:1" fill="#000" d="M 152.5,3.5 C 154.308,4.91791 154.975,6.91791 154.5,9.5C 156.5,9.16667 158.5,8.83333 160.5,8.5C 160.817,11.5719 160.484,14.5719 159.5,17.5C 158.851,15.3759 158.017,13.3759 157,11.5C 156.83,17.3492 155.997,21.6826 154.5,24.5C 156.5,24.5 158.5,24.5 160.5,24.5C 160.719,25.675 160.386,26.675 159.5,27.5C 157.674,27.0798 155.674,27.0798 153.5,27.5C 153.349,30.7181 152.516,31.0515 151,28.5C 149.814,22.9155 149.148,17.2488 149,11.5C 148.83,13.7148 148.163,15.7148 147,17.5C 146.502,14.5184 146.335,11.5184 146.5,8.5C 149.949,8.6241 151.949,6.95744 152.5,3.5 Z"/></g>
<g><path style="opacity:1" fill="#000" d="M 113.5,7.5 C 117.287,6.81442 120.454,7.81442 123,10.5C 123.831,18.1883 123.665,25.855 122.5,33.5C 121.833,33.8333 121.167,34.1667 120.5,34.5C 119.833,31.8333 119.167,29.1667 118.5,26.5C 117.264,27.2458 115.93,27.5792 114.5,27.5C 114.762,28.9778 114.429,30.3112 113.5,31.5C 112.375,27.9776 110.709,24.8109 108.5,22C 108.862,20.7753 109.362,19.6086 110,18.5C 112.2,17.1645 114.033,15.4978 115.5,13.5C 115.547,11.9996 114.881,10.9996 113.5,10.5C 112.065,11.8237 111.065,13.4904 110.5,15.5C 108.775,11.7733 109.775,9.10666 113.5,7.5 Z M 116.5,12.5 C 118.817,11.4655 119.817,12.4655 119.5,15.5C 118.448,15.6495 117.448,15.4828 116.5,15C 117.774,14.0228 117.774,13.1894 116.5,12.5 Z M 114.5,18.5 C 115.5,18.5 116.5,18.5 117.5,18.5C 117.48,20.143 118.147,21.4763 119.5,22.5C 117.604,23.4656 115.604,23.7989 113.5,23.5C 113.366,21.7085 113.699,20.0418 114.5,18.5 Z"/></g>
<g><path style="opacity:1" fill="#000" d="M 130.5,7.5 C 131.931,7.88066 132.764,8.88066 133,10.5C 136.864,7.75037 140.531,8.0837 144,11.5C 144.993,16.9891 145.493,22.4891 145.5,28C 145.41,31.1783 144.41,34.0116 142.5,36.5C 141,34.2143 140.667,31.881 141.5,29.5C 140.875,23.8542 140.208,18.1875 139.5,12.5C 138.833,12.1667 138.167,11.8333 137.5,11.5C 136.833,13.5 136.167,15.5 135.5,17.5C 134.833,15.8333 134.167,14.1667 133.5,12.5C 132.949,19.1827 132.616,25.8494 132.5,32.5C 131.719,31.2713 131.219,29.938 131,28.5C 130.692,29.3081 130.192,29.9747 129.5,30.5C 128.669,24.1928 128.169,17.8594 128,11.5C 127.781,12.938 127.281,14.2713 126.5,15.5C 125.167,13.5 125.167,11.5 126.5,9.5C 128.026,9.00569 129.359,8.33903 130.5,7.5 Z"/></g>
<g><path style="opacity:1" fill="#000" d="M 199.5,11.5 C 199.5,18.8333 199.5,26.1667 199.5,33.5C 198.849,34.0906 198.182,34.7573 197.5,35.5C 196.072,33.3455 195.739,31.1788 196.5,29C 195.691,23.5829 195.191,18.0829 195,12.5C 193.989,11.6634 192.822,11.33 191.5,11.5C 190.984,19.474 190.151,19.474 189,11.5C 188.667,11.8333 188.333,12.1667 188,12.5C 187.734,19.2423 187.568,25.909 187.5,32.5C 186.702,30.9223 186.202,29.2556 186,27.5C 185.692,28.3081 185.192,28.9747 184.5,29.5C 183.67,23.5275 183.17,17.5275 183,11.5C 182.126,15.5352 181.126,19.5352 180,23.5C 178.429,25.9229 176.263,27.2562 173.5,27.5C 172.725,34.5139 171.558,34.8472 170,28.5C 161.588,23.6012 160.422,17.4346 166.5,10C 171.729,7.37858 176.229,8.21192 180,12.5C 180.49,11.2068 180.657,9.87344 180.5,8.5C 182.401,8.56681 184.234,8.23348 186,7.5C 186.945,7.90536 187.612,8.57203 188,9.5C 192.388,6.6792 196.222,7.34587 199.5,11.5 Z M 170.5,10.5 C 172.442,15.0557 173.108,20.0557 172.5,25.5C 168.213,24.7675 166.213,22.1008 166.5,17.5C 166.577,15.701 167.077,14.0344 168,12.5C 168.216,14.3839 168.883,16.0506 170,17.5C 169.936,15.0444 170.102,12.7111 170.5,10.5 Z M 174.5,11.5 C 176.886,15.6463 177.052,19.9796 175,24.5C 174.501,20.1794 174.334,15.8461 174.5,11.5 Z"/></g>
<g><path style="opacity:1" fill="#000" d="M 50.5,8.5 C 53.9297,8.10653 57.0964,8.77319 60,10.5C 60.8316,18.5208 60.6649,26.5208 59.5,34.5C 58.8333,34.8333 58.1667,35.1667 57.5,35.5C 56.6786,32.5535 56.1786,29.5535 56,26.5C 53.0305,27.4266 51.1972,29.4266 50.5,32.5C 49.7022,30.9223 49.2022,29.2556 49,27.5C 45.4342,25.4814 44.7675,22.8147 47,19.5C 49.1999,18.1645 51.0333,16.4978 52.5,14.5C 52.5472,12.9996 51.8805,11.9996 50.5,11.5C 49.0653,12.8237 48.0653,14.4904 47.5,16.5C 45.7803,12.7138 46.7803,10.0472 50.5,8.5 Z M 53.5,12.5 C 54.0768,11.2267 54.7435,11.2267 55.5,12.5C 56.6446,13.891 56.6446,15.2243 55.5,16.5C 54.8281,15.0508 54.1614,13.7175 53.5,12.5 Z M 50.5,19.5 C 51.8333,19.5 53.1667,19.5 54.5,19.5C 54.4802,21.143 55.1468,22.4763 56.5,23.5C 54.604,24.4656 52.604,24.7989 50.5,24.5C 50.5,22.8333 50.5,21.1667 50.5,19.5 Z"/></g>
</svg>
